<?xml version="1.0" encoding="UTF-8" standalone="no"?>
<!DOCTYPE svg PUBLIC "-//W3C//DTD SVG 1.1//EN" "http://www.w3.org/Graphics/SVG/1.1/DTD/svg11.dtd">
<svg width="100%" height="100%" viewBox="0 0 1024 1024" version="1.1" xmlns="http://www.w3.org/2000/svg" xmlns:xlink="http://www.w3.org/1999/xlink" xml:space="preserve" xmlns:serif="http://www.serif.com/" style="fill-rule:evenodd;clip-rule:evenodd;stroke-linejoin:round;stroke-miterlimit:2;">
    <g transform="matrix(1.79017,1.22989,-1.22989,1.79017,505.372,465)">
        <g id="_3---Layer" serif:id="3 – Layer">
            <path d="M-126.374,57.844L-158.361,11.285C-158.736,8.261 -159.022,5.209 -159.216,2.133L-143.21,-8.864C-143.214,-8.432 -143.215,-8.001 -143.215,-7.568C-143.215,16.158 -137.106,38.458 -126.374,57.844ZM-79.494,126.08L-111.626,79.31C-93.973,100.35 -70.033,115.937 -42.697,123.18L-59.763,134.905C-66.582,132.425 -73.172,129.47 -79.494,126.08ZM50.665,-142.061L66.851,-153.18C67.54,-152.879 68.226,-152.574 68.909,-152.264L90.816,-120.377C78.723,-129.515 65.209,-136.873 50.665,-142.061ZM144.996,-41.515L161.68,-17.232L150.487,-9.542C149.799,-20.563 147.927,-31.262 144.996,-41.515ZM34.333,-130.84C92.61,-115.636 135.622,-62.642 135.622,0.398C135.622,0.489 135.621,0.58 135.621,0.671L118.771,12.247C119.131,8.346 119.315,4.394 119.315,0.398C119.315,-60.237 74.084,-110.308 15.522,-117.916L34.333,-130.84ZM-24.874,110.935C-82.97,102.72 -127.655,52.794 -127.655,-7.568C-127.655,-11.748 -127.454,-15.881 -127.061,-19.958L-108.498,-32.712C-110.363,-24.632 -111.348,-16.215 -111.348,-7.568C-111.348,49.528 -65.063,95.813 -7.967,95.813C-6.183,95.813 -4.411,95.764 -2.652,95.668L-24.874,110.935ZM-5.934,-103.175C-3.971,-103.295 -1.993,-103.356 -0,-103.356C57.302,-103.356 103.754,-56.904 103.754,0.398C103.754,8.612 102.868,16.619 101.186,24.329L79.09,39.509C84.46,27.574 87.448,14.335 87.448,0.398C87.448,-47.898 48.296,-87.05 -0,-87.05C-43.896,-87.05 -79.481,-51.465 -79.481,-7.568C-79.481,31.928 -47.463,63.946 -7.967,63.946C27.13,63.946 55.581,35.495 55.581,0.398C55.581,-30.298 30.696,-55.183 -0,-55.183C-26.297,-55.183 -47.614,-33.865 -47.614,-7.568C-47.614,14.328 -29.863,32.079 -7.967,32.079C9.53,32.079 23.714,17.895 23.714,0.398C23.714,-12.698 13.097,-23.316 -0,-23.316C-8.697,-23.316 -15.747,-16.265 -15.747,-7.568C-15.747,-3.333 -12.363,0.112 -8.151,0.21C-8.051,-4.203 -4.437,-7.755 -0,-7.755C4.5,-7.755 8.153,-4.102 8.153,0.398L7.826,3.638L6.883,6.675L5.395,9.417L3.432,11.797L1.052,13.76L-1.69,15.248L-4.727,16.191L-7.967,16.518C-21.27,16.518 -32.054,5.734 -32.054,-7.568C-32.054,-25.271 -17.703,-39.622 -0,-39.622C22.103,-39.622 40.02,-21.704 40.02,0.398C40.02,26.901 18.536,48.385 -7.967,48.385C-38.869,48.385 -63.921,23.334 -63.921,-7.568C-63.921,-42.871 -35.302,-71.489 -0,-71.489C39.702,-71.489 71.887,-39.304 71.887,0.398C71.887,44.501 36.136,80.252 -7.967,80.252C-56.469,80.253 -95.788,40.934 -95.788,-7.568C-95.788,-21.773 -92.696,-35.255 -87.148,-47.379L-5.934,-103.175Z"/>
        </g>
    </g>
</svg>
